<?xml version="1.0" encoding="utf-8"?>
<!-- Generator: Adobe Illustrator 18.1.1, SVG Export Plug-In . SVG Version: 6.00 Build 0)  -->
<svg version="1.1" id="Layer_1" xmlns="http://www.w3.org/2000/svg" xmlns:xlink="http://www.w3.org/1999/xlink" x="0px" y="0px"
	 viewBox="0 0 216 137" enable-background="new 0 0 216 137" xml:space="preserve">
<ellipse fill="#1A5063" cx="107.6" cy="64.6" rx="34.9" ry="8.3"/>
<g>
	<g>
		<path fill="#F5F6F6" d="M214.9,88.4c-2.1-5.8-11.7-12.7-21.1-15.2c-3.7-1-6.6-1.4-9-1.4c-2.6,0-4.5,0.6-5.8,1.7L127,59l25.5-6.3
			c3.8,1.4,8.2,2.2,11.7,2.2c1.5,0,2.9-0.1,4-0.4c3.1-0.8,3.7-2.5,3.8-3.4c0.2-2.3-1.9-4.7-6.1-6.7c-4.4-2.2-10.2-3.6-14.9-3.6
			c-1.3,0-2.5,0.1-3.6,0.3c-2.9,0.6-3.8,2-4.1,3.1c-0.2,0.7-0.2,1.6,0.4,2.7l-14.9,3.5c2.5-5.4,4.9-12.6,4.9-20.7c0-0.3,0-0.5,0-0.8
			c0-0.2,0-0.4,0-0.6c0-1.9-0.2-3.9-0.5-5.7c-0.7-4.1-2-7.5-4.1-10.3C124.3,4.6,116.2,0,107.7,0c0,0,0,0,0,0c0,0,0,0,0,0
			C99,0,91,4.6,86.1,12.2c-2.1,2.8-3.4,6.1-4.1,10.3c-0.4,1.9-0.5,3.8-0.5,5.7c0,0.2,0,0.4,0,0.6c0,0.3,0,0.5,0,0.8
			c0,8,2.4,15.2,4.9,20.7l-14.9-3.5c0.6-1.1,0.6-2,0.4-2.7c-0.3-1.1-1.2-2.4-4.1-3.1c-1-0.2-2.2-0.3-3.6-0.3
			c-4.7,0-10.6,1.4-14.9,3.6c-4.2,2.1-6.3,4.5-6.1,6.7c0.1,0.9,0.7,2.6,3.8,3.4c1.1,0.3,2.5,0.4,4,0.4c3.5,0,7.9-0.8,11.7-2.2
			L88.3,59l-52,14.5c-1.3-1.2-3.2-1.7-5.8-1.7c-2.3,0-5.3,0.5-9,1.4c-9.4,2.4-19.1,9.4-21.1,15.2c-0.8,2.2-0.2,3.7,0.4,4.6
			c1.3,1.9,4.1,2.9,8.1,2.9c2.8,0,6.2-0.5,9.7-1.5c8.2-2.3,15.8-6.8,19.1-11.2l58-16.3l-32.9,36c-8.4,1.1-17.6,5.6-23.6,11.8
			c-5.1,5.1-7.2,10.6-5.8,14.9c1.1,3.3,4.2,5.6,8.7,6.4c1.2,0.2,2.4,0.3,3.7,0.3l0,0c10.2,0,22.8-6.3,29.3-14.6
			c3.1-4,4.4-8.1,3.7-11.5c-0.4-2-1.5-3.6-3.1-4.9l32-37.7c0,0,0,0,0,0h0.1h0.1c0,0,0,0,0,0l32,37.7c-1.6,1.3-2.7,2.9-3.1,4.9
			c-0.7,3.4,0.6,7.5,3.7,11.5c6.5,8.3,19,14.6,29.3,14.6c0,0,0,0,0,0c1.3,0,2.5-0.1,3.7-0.3c4.5-0.8,7.6-3,8.7-6.4
			c1.4-4.3-0.7-9.8-5.8-14.9c-6-6.1-15.2-10.7-23.6-11.8l-32.9-36l58,16.3c3.3,4.4,10.9,8.9,19.1,11.2c3.5,1,6.9,1.5,9.7,1.5
			c4,0,6.8-1,8.1-2.9C215.1,92.1,215.7,90.6,214.9,88.4z"/>
		<path fill="#F37274" d="M111.1,63.9l3.5,4.3l0,0l31.6,37.3c0.4,0.4,0.5,1,0.4,1.5c-0.1,0.5-0.5,1-0.9,1.3c-1.6,0.9-2.6,2.1-3,3.7
			c-0.5,2.4,0.5,5.6,3,8.8c5.8,7.5,17.5,13.3,26.7,13.3c1.1,0,2.1-0.1,3.1-0.3c2.3-0.4,5.3-1.4,6.1-4.2c1-3.1-0.9-7.4-5-11.6
			c-5.6-5.7-14.5-10-22.2-10.9c-0.4,0-0.8-0.3-1.1-0.6l-38.5-42.3l0.5-0.2c0.7-0.2,1.3-0.5,1.9-0.7l0.3-0.1l5.3,1.3l58.9,16.6
			c0.4,0.1,0.8,0.4,1,0.7c2.7,3.9,9.9,8.2,17.6,10.3c3.2,0.9,6.3,1.4,8.8,1.4c2.7,0,4.7-0.6,5.4-1.5c0.1-0.1,0.4-0.6,0-1.6
			c-1.5-4.3-9.9-10.8-18.9-13.1c-3.4-0.9-6.1-1.3-8.1-1.3c-2,0-3.2,0.4-3.8,1.2c-0.4,0.6-2.4,1.4-3.1,1.2L117.9,61l1.4-1.2
			c0.2-0.2,3.2,0.5,3.3,0.3l0.1-0.1c0.1-0.2,0.3-0.3,0.4-0.5c0.1-0.1,0.5-0.6,1-1.4l0.1-0.1l5-1.1l0,0l25.8-6.4
			c0.4-0.1,0.7-0.1,1.1,0.1c3.6,1.4,7.7,2.2,11,2.2c1.2,0,2.3-0.1,3.2-0.3c1-0.3,1.3-0.6,1.3-0.6c0-0.2-0.7-1.6-4.3-3.4
			c-3.9-1.9-9.3-3.3-13.5-3.3c-1.1,0-2.1,0.1-2.9,0.3c-1.2,0.3-1.6,0.6-1.6,0.7c0,0.1,0.2,0.6,1.1,1.4c0.5,0.5,0.8,0.6,0.6,1.2
			c-0.2,0.7-28.6,7.3-28.6,7.3l0.6-1.4c2.8-4.7,10.1-13.1,10.1-23.7c0-0.3,0-0.5,0-0.8v-0.1c0-0.2,0-0.4,0-0.6
			c0-1.7-0.2-3.5-0.5-5.2c-0.6-3.7-1.8-6.6-3.5-8.9l-0.1-0.1c-4.3-6.7-11.3-10.7-18.7-10.7c-7.5,0-14.5,4-18.8,10.7l-0.1,0.1
			c-1.8,2.4-2.9,5.3-3.5,9c-0.3,1.7-0.5,3.5-0.5,5.2c0,0.2,0,0.4,0,0.6V30c0,0.3,0,0.5,0,0.8c0,10.6,4.7,20,7.5,24.7l0.4,0.7
			l-24.3-5.6c-0.7-0.2-1.2-0.7-1.3-1.3c-0.2-0.7,0.1-1.4,0.6-1.8c0.9-0.8,1.1-1.3,1.1-1.4c0,0-0.4-0.4-1.6-0.7
			c-0.8-0.2-1.8-0.3-2.8-0.3c-4.2,0-9.6,1.3-13.5,3.3c-3.6,1.8-4.3,3.3-4.3,3.5c0,0,0.4,0.3,1.3,0.6c0.9,0.2,1.9,0.3,3.2,0.3
			c3.3,0,7.4-0.8,11-2.2c0.3-0.1,0.7-0.2,1.1-0.1l26.1,6.5l0.5,0.1l4.2,0.9l0.1,0.1c0.6,0.8,0.9,1.3,1,1.4l0,0.1
			c0.1,0.2,0.3,0.3,0.4,0.5l0.1,0.1c0.2,0.2,0.4,0.4,0.6,0.6l0.5,0.4L39.2,78c-0.7,0.2-1.5-0.1-2-0.7c-0.6-0.8-1.8-1.2-3.8-1.2
			c-2,0-4.7,0.4-8.2,1.3c-9,2.3-17.3,8.8-18.9,13.1c-0.4,1-0.1,1.5,0,1.6c0.7,0.9,2.7,1.5,5.4,1.5c2.5,0,5.6-0.5,8.8-1.4
			c7.7-2.2,14.9-6.4,17.6-10.3c0.2-0.4,0.6-0.6,1-0.7l58.9-16.6l4.5-1.3l2.1,0.6l-37.1,42.6c-0.3,0.3-0.7,0.5-1.1,0.6
			c-7.7,0.8-16.6,5.2-22.2,10.9c-4.1,4.2-6,8.5-5,11.6c0.9,2.7,3.8,3.8,6.1,4.2c1,0.2,2,0.3,3.1,0.3c9.1,0,20.9-5.9,26.7-13.3
			c2.5-3.2,3.6-6.3,3-8.8c-0.3-1.6-1.3-2.8-3-3.7c-0.5-0.3-0.8-0.7-0.9-1.3c-0.1-0.5,0-1.1,0.4-1.5l31.7-37.4l0.3-0.4l2.1-3.4
			L111.1,63.9z"/>
		<g>
			<path fill="#010101" d="M95,25.5c-1.7,0-3.1,1.4-3.1,3.1c0,1.7,1.4,3.1,3.1,3.1c1.7,0,3.1-1.4,3.1-3.1
				C98.1,26.9,96.7,25.5,95,25.5z"/>
			<path fill="#010101" d="M120.2,25.5c-1.7,0-3.1,1.4-3.1,3.1c0,1.7,1.4,3.1,3.1,3.1c1.7,0,3.1-1.4,3.1-3.1
				C123.3,26.9,121.9,25.5,120.2,25.5z"/>
		</g>
		<path fill="#0F1026" d="M214.9,88.4c-2.1-5.8-11.7-12.7-21.1-15.2c-3.7-1-6.6-1.4-9-1.4c-2.6,0-4.5,0.6-5.8,1.7L127,59l25.5-6.3
			c3.8,1.4,8.2,2.2,11.7,2.2c1.5,0,2.9-0.1,4-0.4c3.1-0.8,3.7-2.5,3.8-3.4c0.2-2.3-1.9-4.7-6.1-6.7c-4.4-2.2-10.2-3.6-14.9-3.6
			c-1.3,0-2.5,0.1-3.6,0.3c-2.9,0.6-3.8,2-4.1,3.1c-0.2,0.7-0.2,1.6,0.4,2.7l-14.9,3.5c2.5-5.4,4.9-12.6,4.9-20.7c0-0.3,0-0.5,0-0.8
			c0-0.2,0-0.4,0-0.6c0-1.9-0.2-3.9-0.5-5.7c-0.7-4.1-2-7.5-4.1-10.3C124.3,4.6,116.2,0,107.7,0c0,0,0,0,0,0c0,0,0,0,0,0
			C99,0,91,4.6,86.1,12.2c-2.1,2.8-3.4,6.1-4.1,10.3c-0.4,1.9-0.5,3.8-0.5,5.7c0,0.2,0,0.4,0,0.6c0,0.3,0,0.5,0,0.8
			c0,8,2.4,15.2,4.9,20.7l-14.9-3.5c0.6-1.1,0.6-2,0.4-2.7c-0.3-1.1-1.2-2.4-4.1-3.1c-1-0.2-2.2-0.3-3.6-0.3
			c-4.7,0-10.6,1.4-14.9,3.6c-4.2,2.1-6.3,4.5-6.1,6.7c0.1,0.9,0.7,2.6,3.8,3.4c1.1,0.3,2.5,0.4,4,0.4c3.5,0,7.9-0.8,11.7-2.2
			L88.3,59l-52,14.5c-1.3-1.2-3.2-1.7-5.8-1.7c-2.3,0-5.3,0.5-9,1.4c-9.4,2.4-19.1,9.4-21.1,15.2c-0.8,2.2-0.2,3.7,0.4,4.6
			c1.3,1.9,4.1,2.9,8.1,2.9c2.8,0,6.2-0.5,9.7-1.5c8.2-2.3,15.8-6.8,19.1-11.2l58-16.3l-32.9,36c-8.4,1.1-17.6,5.6-23.6,11.8
			c-5.1,5.1-7.2,10.6-5.8,14.9c1.1,3.3,4.2,5.6,8.7,6.4c1.2,0.2,2.4,0.3,3.7,0.3l0,0c10.2,0,22.8-6.3,29.3-14.6
			c3.1-4,4.4-8.1,3.7-11.5c-0.4-2-1.5-3.6-3.1-4.9l32-37.7c0,0,0,0,0,0h0.1h0.1c0,0,0,0,0,0l32,37.7c-1.6,1.3-2.7,2.9-3.1,4.9
			c-0.7,3.4,0.6,7.5,3.7,11.5c6.5,8.3,19,14.6,29.3,14.6c0,0,0,0,0,0c1.3,0,2.5-0.1,3.7-0.3c4.5-0.8,7.6-3,8.7-6.4
			c1.4-4.3-0.7-9.8-5.8-14.9c-6-6.1-15.2-10.7-23.6-11.8l-32.9-36l58,16.3c3.3,4.4,10.9,8.9,19.1,11.2c3.5,1,6.9,1.5,9.7,1.5
			c4,0,6.8-1,8.1-2.9C215.1,92.1,215.7,90.6,214.9,88.4z M212,91.3c-0.7,1-2.8,1.6-5.7,1.6c-2.6,0-5.7-0.5-8.9-1.4
			c-7.8-2.2-15.1-6.5-17.8-10.5c-0.2-0.3-0.5-0.5-0.8-0.6l-58.9-16.6l-5.2-1.3c-0.1,0-0.1,0.1-0.2,0.1c0,0,0,0,0,0
			c-0.7,0.3-1.3,0.5-1.9,0.7l38.2,41.9c0.2,0.3,0.6,0.4,0.9,0.5c7.8,0.8,16.7,5.2,22.4,11c4.2,4.3,6.1,8.7,5.1,11.9
			c-0.9,2.9-4,4-6.4,4.4c-1,0.2-2.1,0.3-3.2,0.3c-9.2,0-21.1-5.9-26.9-13.5c-2.6-3.3-3.7-6.5-3.1-9.1c0.4-1.7,1.4-3,3.2-3.9
			c0.4-0.2,0.7-0.6,0.8-1c0.1-0.4,0-0.9-0.3-1.2l-32-37.7c0,0,0,0,0,0l-2.1-2.5c-0.3,0.1-0.6,0.1-0.9,0.2c0,0-0.1,0-0.1,0
			c-0.1,0-0.2,0-0.3,0h0h0h0h0c-0.1,0-0.2,0-0.3,0c0,0-0.1,0-0.1,0c-0.2,0-0.5-0.1-0.9-0.2l-2.1,2.5c0,0,0,0,0,0l-32,37.7
			c-0.3,0.3-0.4,0.8-0.3,1.2c0.1,0.4,0.4,0.8,0.8,1c1.7,0.9,2.8,2.2,3.2,3.9c0.6,2.5-0.6,5.8-3.1,9.1c-5.9,7.6-17.7,13.5-26.9,13.5
			c-1.1,0-2.2-0.1-3.2-0.3c-2.4-0.4-5.5-1.5-6.4-4.4c-1-3.2,0.9-7.7,5.1-11.9c5.6-5.7,14.6-10.1,22.4-11c0.4,0,0.7-0.2,0.9-0.5
			l38.2-41.9c-0.6-0.2-1.3-0.5-1.9-0.7c0,0,0,0,0,0c-0.1,0-0.1-0.1-0.2-0.1l-5.2,1.3L36.4,80.4c-0.3,0.1-0.6,0.3-0.8,0.6
			c-2.7,4-10,8.3-17.8,10.5c-3.3,0.9-6.4,1.4-8.9,1.4c-2.8,0-5-0.6-5.7-1.6c-0.1-0.2-0.5-0.7-0.1-1.9c1.5-4.4,10-11,19.1-13.3
			c3.5-0.9,6.2-1.3,8.2-1.3c2.1,0,3.5,0.4,4.1,1.3c0.4,0.5,1,0.7,1.6,0.6l59.7-16.8c-0.2-0.2-0.5-0.4-0.6-0.6c0,0-0.1-0.1-0.1-0.1
			c-0.2-0.2-0.3-0.3-0.4-0.5c0,0,0,0,0,0c0,0,0,0,0,0c-0.1-0.1-0.5-0.6-1-1.4l-4.1-0.9c0,0,0,0,0,0L63,49.7c-0.1,0-0.2,0-0.4,0
			c-0.2,0-0.4,0-0.5,0.1c-3.6,1.4-7.7,2.2-11.1,2.2c-1.3,0-2.4-0.1-3.3-0.4c-1.1-0.3-1.6-0.7-1.6-0.9c0-0.5,1-2.1,4.5-3.8
			c3.9-2,9.4-3.3,13.6-3.3c1.1,0,2.1,0.1,2.9,0.3c1.3,0.3,1.8,0.7,1.9,0.9c0.1,0.2-0.2,0.9-1.2,1.8c-0.4,0.4-0.6,0.9-0.5,1.5
			c0.1,0.5,0.6,1,1.1,1.1L92,54.5c-3-5.1-7.5-14.3-7.5-24.8c0-0.3,0-0.5,0-0.8v0v0c0-0.2,0-0.4,0-0.6c0-1.7,0.2-3.5,0.5-5.2
			c0.6-3.7,1.8-6.7,3.6-9.1l0.1-0.1C92.9,7,100,2.9,107.6,2.9c0,0,0,0,0,0c0,0,0,0,0,0c7.6,0,14.7,4.1,19,10.9l0.1,0.1
			c1.8,2.4,3,5.4,3.6,9.1c0.3,1.7,0.5,3.5,0.5,5.2c0,0.2,0,0.4,0,0.6v0v0c0,0.3,0,0.5,0,0.8c0,10.5-4.5,19.8-7.5,24.8l23.5-5.4
			c0.5-0.1,1-0.5,1.1-1.1c0.1-0.5,0-1.1-0.5-1.5c-1-0.9-1.3-1.5-1.2-1.8c0.1-0.2,0.6-0.7,1.9-0.9c0.8-0.2,1.8-0.3,2.9-0.3
			c4.2,0,9.7,1.3,13.6,3.3c3.5,1.7,4.5,3.3,4.5,3.8c0,0.2-0.5,0.6-1.6,0.9c-0.9,0.2-2,0.4-3.3,0.4c-3.3,0-7.5-0.8-11.1-2.2
			c-0.2-0.1-0.3-0.1-0.5-0.1c-0.1,0-0.2,0-0.4,0l-26.6,6.6c0,0,0,0,0,0l-4.1,0.9c-0.5,0.8-0.9,1.3-1,1.4c0,0,0,0,0,0c0,0,0,0,0,0
			c-0.1,0.2-0.3,0.3-0.4,0.5c0,0-0.1,0.1-0.1,0.1c-0.2,0.2-0.4,0.4-0.6,0.6l59.7,16.8c0.6,0.2,1.2-0.1,1.6-0.6
			c0.6-0.9,2-1.3,4.1-1.3c2.1,0,4.8,0.4,8.2,1.3c9.1,2.3,17.6,9,19.1,13.3C212.5,90.6,212.2,91.1,212,91.3z"/>
		<g>
			<path fill="#010101" d="M108.3,52.4c-4.6,0-8.5-2.2-8.7-2.3c-0.6-0.3-0.8-1.1-0.5-1.7c0.4-0.6,1.1-0.8,1.7-0.5
				c0.1,0.1,7.7,4.3,13.5,0.1c0.6-0.4,1.4-0.3,1.8,0.3c0.4,0.6,0.3,1.4-0.3,1.8C113.4,51.8,110.7,52.4,108.3,52.4z"/>
		</g>
	</g>
	<circle fill="#F5F6F6" cx="92.3" cy="18.5" r="1.7"/>
	<circle fill="#F5F6F6" cx="101.1" cy="12" r="1.7"/>
	<path fill="#F5F6F6" d="M99,14.2c0,1.6-1.3,2.9-2.9,2.9c-1.6,0-2.9-1.3-2.9-2.9c0-1.6,1.3-2.9,2.9-2.9C97.7,11.3,99,12.6,99,14.2z"
		/>
</g>
</svg>
