<?xml version="1.0" encoding="utf-8"?>
<!-- Generator: Adobe Illustrator 18.1.1, SVG Export Plug-In . SVG Version: 6.00 Build 0)  -->
<svg version="1.1" id="Layer_1" xmlns="http://www.w3.org/2000/svg" xmlns:xlink="http://www.w3.org/1999/xlink" x="0px" y="0px"
	 viewBox="0 0 256 256" enable-background="new 0 0 256 256" xml:space="preserve">
<g>
	<ellipse fill="#174F63" cx="127.6" cy="123.4" rx="41.4" ry="9.8"/>
	<path fill="#F5F5F5" d="M254.9,151.6c-2.4-6.9-13.9-15.1-25.1-18c-4.4-1.1-7.9-1.7-10.6-1.7c-3.1,0-5.3,0.7-6.8,2.1l-61.7-17.2
		l30.3-7.5c4.5,1.7,9.7,2.6,13.9,2.6c1.8,0,3.4-0.2,4.8-0.5c3.6-1,4.4-3,4.5-4.1c0.3-2.7-2.3-5.5-7.2-8c-5.2-2.6-12.1-4.3-17.7-4.3
		c-1.6,0-3,0.1-4.2,0.4c-3.4,0.8-4.5,2.4-4.8,3.7c-0.2,0.8-0.2,1.9,0.5,3.2l-17.7,4.2c3-6.4,5.8-15,5.8-24.5c0-0.3,0-0.6,0-0.9
		c0-0.2,0-0.5,0-0.7c0-2.3-0.2-4.6-0.6-6.8c-0.8-4.9-2.4-8.9-4.8-12.2c-5.8-9.1-15.3-14.5-25.5-14.5c0,0,0,0,0,0c0,0,0,0,0,0
		c-10.2,0-19.7,5.4-25.5,14.5c-2.4,3.3-4,7.3-4.8,12.2c-0.4,2.2-0.6,4.5-0.6,6.8c0,0.2,0,0.5,0,0.7c0,0.3,0,0.6,0,0.9
		c0,9.5,2.8,18.1,5.8,24.5l-17.7-4.2c0.7-1.3,0.7-2.4,0.5-3.2c-0.3-1.3-1.4-2.9-4.8-3.7c-1.2-0.3-2.6-0.4-4.2-0.4
		c-5.6,0-12.5,1.7-17.7,4.3c-4.9,2.5-7.5,5.3-7.2,8c0.1,1.1,0.8,3.1,4.5,4.1c1.3,0.4,2.9,0.5,4.8,0.5c4.2,0,9.3-1,13.9-2.6l30.3,7.5
		L43,134c-1.5-1.4-3.8-2.1-6.8-2.1c-2.8,0-6.2,0.6-10.6,1.7c-11.1,2.9-22.6,11.1-25.1,18c-0.9,2.6-0.2,4.4,0.5,5.5
		c1.6,2.2,4.9,3.4,9.6,3.4c3.4,0,7.4-0.6,11.5-1.8c9.7-2.8,18.7-8.1,22.6-13.3l68.7-19.3l-39,42.7c-9.9,1.3-20.8,6.7-28,14
		c-6,6.1-8.5,12.5-6.8,17.7c1.3,4,4.9,6.7,10.3,7.6c1.4,0.2,2.8,0.4,4.4,0.4c0,0,0,0,0,0c12.1,0,27-7.4,34.7-17.3
		c3.7-4.7,5.2-9.6,4.3-13.6c-0.5-2.3-1.8-4.3-3.7-5.8l37.9-44.7c0,0,0,0,0,0h0.1h0.1c0,0,0,0,0,0l37.9,44.7
		c-1.9,1.5-3.2,3.5-3.7,5.8c-0.9,4,0.7,8.9,4.3,13.6c7.7,9.9,22.6,17.3,34.7,17.3c0,0,0,0,0,0c1.5,0,3-0.1,4.4-0.4
		c5.4-0.9,9-3.6,10.3-7.6c1.7-5.1-0.8-11.6-6.8-17.7c-7.2-7.3-18.1-12.7-28-14l-39-42.7l68.7,19.3c3.9,5.2,12.9,10.5,22.6,13.3
		c4.2,1.2,8.2,1.8,11.5,1.8c4.7,0,8-1.2,9.6-3.4C255.1,156,255.8,154.2,254.9,151.6z"/>
	<path fill="#F37274" d="M131.8,122.5l4.2,5.1l0,0l37.5,44.2c0.4,0.5,0.6,1.2,0.5,1.8c-0.1,0.6-0.5,1.2-1.1,1.5
		c-1.9,1-3.1,2.5-3.5,4.3c-0.6,2.9,0.7,6.6,3.6,10.4c6.9,8.9,20.8,15.8,31.6,15.8c1.3,0,2.5-0.1,3.7-0.3c2.7-0.5,6.2-1.7,7.3-4.9
		c1.2-3.7-1-8.8-5.9-13.8c-6.6-6.7-17.2-11.9-26.3-12.9c-0.5-0.1-1-0.3-1.4-0.7l-45.7-50.1l0.6-0.2c0.8-0.3,1.6-0.6,2.3-0.8l0.4-0.2
		l6.3,1.6l69.9,19.7c0.5,0.1,0.9,0.4,1.2,0.9c3.2,4.6,11.7,9.7,20.9,12.3c3.8,1.1,7.5,1.7,10.5,1.7c3.2,0,5.6-0.7,6.4-1.8
		c0.1-0.2,0.5-0.7,0-1.9c-1.8-5.1-11.8-12.8-22.4-15.5c-4.1-1.1-7.2-1.6-9.7-1.6c-2.3,0-3.8,0.5-4.5,1.4c-0.5,0.7-2.8,1.7-3.7,1.5
		l-74.5-20.9l1.7-1.4c0.3-0.2,3.7,0.5,4,0.3l0.1-0.1c0.2-0.2,0.3-0.4,0.5-0.6c0.1-0.2,0.6-0.7,1.2-1.7l0.1-0.1l5.9-1.3l0,0l30.6-7.6
		c0.4-0.1,0.9-0.1,1.3,0.1c4.2,1.6,9.1,2.6,13,2.6c1.5,0,2.7-0.1,3.8-0.4c1.1-0.3,1.5-0.7,1.6-0.8c0-0.2-0.8-1.9-5.1-4.1
		c-4.6-2.3-11-3.9-16-3.9c-1.3,0-2.4,0.1-3.4,0.3c-1.4,0.3-1.9,0.7-1.9,0.8c0,0.1,0.2,0.7,1.3,1.7c0.6,0.5,0.9,0.7,0.7,1.5
		c-0.2,0.8-33.9,8.6-33.9,8.6l0.7-1.7c3.3-5.5,12-15.6,12-28.1c0-0.3,0-0.6,0-0.9l0-0.1c0-0.2,0-0.5,0-0.7c0-2-0.2-4.1-0.6-6.1
		c-0.7-4.4-2.1-7.8-4.2-10.6l-0.1-0.1c-5.1-8-13.4-12.7-22.2-12.7c-8.9,0-17.2,4.8-22.3,12.7l-0.1,0.1c-2.1,2.8-3.4,6.3-4.2,10.6
		c-0.4,2-0.6,4.1-0.6,6.1c0,0.2,0,0.5,0,0.7v0.1c0,0.3,0,0.6,0,0.9c0,12.6,5.6,23.7,8.9,29.2l0.5,0.8l-28.8-6.6
		c-0.8-0.2-1.4-0.8-1.6-1.6c-0.2-0.8,0.1-1.6,0.7-2.1c1.1-1,1.3-1.6,1.3-1.7c0-0.1-0.5-0.5-1.9-0.8c-0.9-0.2-2.1-0.3-3.4-0.3
		c-4.9,0-11.4,1.6-16,3.9c-4.3,2.1-5.1,3.9-5.1,4.1c0,0.1,0.5,0.4,1.6,0.7c1,0.3,2.3,0.4,3.8,0.4c3.9,0,8.8-1,13-2.6
		c0.4-0.2,0.9-0.2,1.3-0.1l30.9,7.7l0.6,0.1l5,1.1l0.1,0.1c0.7,1,1.1,1.5,1.2,1.6l0.1,0.1c0.1,0.2,0.3,0.4,0.5,0.6l0.1,0.1
		c0.2,0.2,0.5,0.5,0.7,0.7l0.6,0.5l-71.5,20.2c-0.9,0.2-1.8-0.1-2.3-0.8c-0.7-0.9-2.2-1.4-4.5-1.4c-2.4,0-5.6,0.5-9.7,1.6
		c-10.6,2.7-20.6,10.5-22.4,15.5c-0.4,1.2-0.1,1.7,0,1.9c0.8,1.1,3.2,1.8,6.4,1.8c3,0,6.6-0.6,10.5-1.7c9.1-2.6,17.7-7.6,20.9-12.3
		c0.3-0.4,0.7-0.7,1.2-0.9l69.9-19.6l5.4-1.5l2.5,0.7l-44,50.6c-0.4,0.4-0.8,0.6-1.4,0.7c-9.1,1-19.7,6.2-26.3,12.9
		c-4.9,5-7.1,10.1-5.9,13.8c1,3.2,4.5,4.5,7.3,4.9c1.2,0.2,2.4,0.3,3.7,0.3c10.8,0,24.7-6.9,31.6-15.8c3-3.8,4.2-7.5,3.6-10.4
		c-0.4-1.9-1.6-3.3-3.5-4.3c-0.6-0.3-1-0.8-1.1-1.5c-0.1-0.6,0-1.3,0.5-1.8l37.6-44.3l0.3-0.4l2.4-4L131.8,122.5z"/>
	<g>
		<path d="M112.7,77.1c-2,0-3.6,1.6-3.6,3.6c0,2,1.6,3.6,3.6,3.6c2,0,3.6-1.6,3.6-3.6C116.4,78.7,114.7,77.1,112.7,77.1z"/>
		<path d="M142.6,77.1c-2,0-3.6,1.6-3.6,3.6c0,2,1.6,3.6,3.6,3.6c2,0,3.6-1.6,3.6-3.6C146.2,78.7,144.6,77.1,142.6,77.1z"/>
	</g>
	<path fill="#000027" d="M254.9,151.6c-2.4-6.9-13.9-15.1-25.1-18c-4.4-1.1-7.9-1.7-10.6-1.7c-3.1,0-5.3,0.7-6.8,2.1l-61.7-17.2
		l30.3-7.5c4.5,1.7,9.7,2.6,13.9,2.6c1.8,0,3.4-0.2,4.8-0.5c3.6-1,4.4-3,4.5-4.1c0.3-2.7-2.3-5.5-7.2-8c-5.2-2.6-12.1-4.3-17.7-4.3
		c-1.6,0-3,0.1-4.2,0.4c-3.4,0.8-4.5,2.4-4.8,3.7c-0.2,0.8-0.2,1.9,0.5,3.2l-17.7,4.2c3-6.4,5.8-15,5.8-24.5c0-0.3,0-0.6,0-0.9
		c0-0.2,0-0.5,0-0.7c0-2.3-0.2-4.6-0.6-6.8c-0.8-4.9-2.4-8.9-4.8-12.2c-5.8-9.1-15.3-14.5-25.5-14.5c0,0,0,0,0,0c0,0,0,0,0,0
		c-10.2,0-19.7,5.4-25.5,14.5c-2.4,3.3-4,7.3-4.8,12.2c-0.4,2.2-0.6,4.5-0.6,6.8c0,0.2,0,0.5,0,0.7c0,0.3,0,0.6,0,0.9
		c0,9.5,2.8,18.1,5.8,24.5l-17.7-4.2c0.7-1.3,0.7-2.4,0.5-3.2c-0.3-1.3-1.4-2.9-4.8-3.7c-1.2-0.3-2.6-0.4-4.2-0.4
		c-5.6,0-12.5,1.7-17.7,4.3c-4.9,2.5-7.5,5.3-7.2,8c0.1,1.1,0.8,3.1,4.5,4.1c1.3,0.4,2.9,0.5,4.8,0.5c4.2,0,9.3-1,13.9-2.6l30.3,7.5
		L43,134c-1.5-1.4-3.8-2.1-6.8-2.1c-2.8,0-6.2,0.6-10.6,1.7c-11.1,2.9-22.6,11.1-25.1,18c-0.9,2.6-0.2,4.4,0.5,5.5
		c1.6,2.2,4.9,3.4,9.6,3.4c3.4,0,7.4-0.6,11.5-1.8c9.7-2.8,18.7-8.1,22.6-13.3l68.7-19.3l-39,42.7c-9.9,1.3-20.8,6.7-28,14
		c-6,6.1-8.5,12.5-6.8,17.7c1.3,4,4.9,6.7,10.3,7.6c1.4,0.2,2.8,0.4,4.4,0.4c0,0,0,0,0,0c12.1,0,27-7.4,34.7-17.3
		c3.7-4.7,5.2-9.6,4.3-13.6c-0.5-2.3-1.8-4.3-3.7-5.8l37.9-44.7c0,0,0,0,0,0h0.1h0.1c0,0,0,0,0,0l37.9,44.7
		c-1.9,1.5-3.2,3.5-3.7,5.8c-0.9,4,0.7,8.9,4.3,13.6c7.7,9.9,22.6,17.3,34.7,17.3c0,0,0,0,0,0c1.5,0,3-0.1,4.4-0.4
		c5.4-0.9,9-3.6,10.3-7.6c1.7-5.1-0.8-11.6-6.8-17.7c-7.2-7.3-18.1-12.7-28-14l-39-42.7l68.7,19.3c3.9,5.2,12.9,10.5,22.6,13.3
		c4.2,1.2,8.2,1.8,11.5,1.8c4.7,0,8-1.2,9.6-3.4C255.1,156,255.8,154.2,254.9,151.6z M251.5,155c-0.9,1.2-3.4,1.9-6.7,1.9
		c-3,0-6.7-0.6-10.6-1.7c-9.2-2.6-17.9-7.7-21.1-12.4c-0.2-0.3-0.6-0.6-1-0.7l-69.9-19.6L136,121c-0.1,0-0.2,0.1-0.3,0.1
		c0,0,0,0,0,0c-0.8,0.3-1.5,0.6-2.3,0.9l45.3,49.7c0.3,0.3,0.7,0.5,1.1,0.6c9.2,1,19.9,6.2,26.5,13c5,5.1,7.2,10.4,6,14.2
		c-1.1,3.4-4.7,4.7-7.6,5.2c-1.2,0.2-2.4,0.3-3.8,0.3c-11,0-25-7-31.9-16c-3-3.9-4.4-7.7-3.7-10.7c0.4-2,1.7-3.5,3.7-4.6
		c0.5-0.2,0.8-0.7,0.9-1.2c0.1-0.5,0-1.1-0.4-1.5l-37.9-44.7c0,0,0,0,0,0l-2.5-3c-0.4,0.1-0.8,0.2-1,0.2c0,0-0.1,0-0.1,0
		c-0.1,0-0.3,0-0.3,0l0,0l0,0l0,0l0,0c-0.1,0-0.2,0-0.3,0c0,0-0.1,0-0.1,0c-0.3,0-0.6-0.1-1-0.2l-2.5,3c0,0,0,0,0,0l-37.9,44.7
		c-0.3,0.4-0.5,0.9-0.4,1.5c0.1,0.5,0.4,1,0.9,1.2c2,1.1,3.3,2.6,3.7,4.6c0.7,3-0.7,6.8-3.7,10.7c-7,9-21,16-31.9,16
		c-1.3,0-2.6-0.1-3.8-0.3c-2.9-0.5-6.5-1.8-7.6-5.2c-1.2-3.8,1-9.1,6-14.2c6.7-6.8,17.3-12,26.5-13c0.4,0,0.8-0.2,1.1-0.6l45.3-49.7
		c-0.7-0.3-1.5-0.5-2.3-0.9c0,0,0,0,0,0c-0.1,0-0.2-0.1-0.3-0.1l-6.2,1.6l-69.9,19.6c-0.4,0.1-0.7,0.4-1,0.7
		c-3.2,4.7-11.9,9.8-21.1,12.4c-3.9,1.1-7.5,1.7-10.6,1.7c-3.4,0-5.9-0.7-6.7-1.9c-0.2-0.2-0.6-0.9-0.1-2.3
		c1.8-5.2,11.9-13,22.7-15.8c4.1-1.1,7.3-1.6,9.8-1.6c2.5,0,4.1,0.5,4.8,1.6c0.4,0.6,1.2,0.9,1.9,0.7l70.8-20
		c-0.3-0.2-0.5-0.5-0.8-0.7c0,0-0.1-0.1-0.1-0.1c-0.2-0.2-0.4-0.4-0.5-0.6c0,0,0,0,0,0c0,0,0,0,0-0.1c-0.1-0.2-0.6-0.7-1.2-1.7
		l-4.9-1.1c0,0,0,0,0,0.1l-31.6-7.8c-0.1,0-0.3-0.1-0.4-0.1c-0.2,0-0.4,0-0.6,0.1c-4.3,1.6-9.2,2.6-13.1,2.6c-1.5,0-2.8-0.1-3.9-0.4
		c-1.3-0.4-1.9-0.8-1.9-1.1c-0.1-0.6,1.2-2.5,5.3-4.5c4.7-2.3,11.2-3.9,16.2-3.9c1.3,0,2.5,0.1,3.5,0.3c1.5,0.3,2.1,0.9,2.2,1.1
		c0.1,0.3-0.3,1.1-1.4,2.1c-0.5,0.4-0.7,1.1-0.5,1.7c0.2,0.6,0.7,1.1,1.3,1.3l27.9,6.4c-3.6-6-8.9-17-8.9-29.4c0-0.3,0-0.6,0-0.9v0
		l0,0c0-0.2,0-0.5,0-0.7c0-2.1,0.2-4.1,0.6-6.2c0.7-4.4,2.1-7.9,4.2-10.8l0.1-0.1c5.1-8.1,13.6-12.9,22.6-12.9c0,0,0,0,0,0
		c0,0,0,0,0,0c9,0,17.4,4.8,22.6,12.9l0.1,0.1c2.1,2.8,3.5,6.4,4.2,10.8c0.4,2.1,0.6,4.1,0.6,6.2c0,0.2,0,0.5,0,0.7l0,0v0
		c0,0.3,0,0.6,0,0.9c0,12.5-5.3,23.4-8.9,29.4l27.9-6.4c0.6-0.1,1.1-0.6,1.3-1.3c0.2-0.6-0.1-1.3-0.5-1.7c-1.2-1-1.5-1.8-1.4-2.1
		c0.1-0.3,0.7-0.8,2.2-1.1c1-0.2,2.1-0.3,3.5-0.3c5,0,11.5,1.6,16.2,3.9c4.1,2.1,5.3,3.9,5.3,4.5c0,0.2-0.5,0.7-1.9,1.1
		c-1.1,0.3-2.4,0.4-3.9,0.4c-3.9,0-8.9-1-13.1-2.6c-0.2-0.1-0.4-0.1-0.6-0.1c-0.1,0-0.3,0-0.4,0.1l-31.6,7.8c0,0,0,0,0-0.1l-4.9,1.1
		c-0.6,0.9-1.1,1.5-1.2,1.7c0,0,0,0.1,0,0.1c0,0,0,0,0,0c-0.2,0.2-0.3,0.4-0.5,0.6c0,0-0.1,0.1-0.1,0.1c-0.2,0.2-0.5,0.5-0.8,0.7
		l70.8,20c0.7,0.2,1.5-0.1,1.9-0.7c0.8-1,2.4-1.6,4.8-1.6c2.5,0,5.7,0.5,9.8,1.6c10.7,2.8,20.8,10.6,22.7,15.8
		C252.1,154.2,251.6,154.8,251.5,155z"/>
	<g>
		<path d="M128.4,109c-5.5,0-10.1-2.6-10.4-2.8c-0.7-0.4-1-1.3-0.5-2c0.4-0.7,1.3-1,2-0.5c0.1,0.1,9.1,5.2,16,0.1
			c0.7-0.5,1.6-0.3,2.1,0.3c0.5,0.7,0.3,1.6-0.3,2.1C134.5,108.2,131.3,109,128.4,109z"/>
	</g>
	<circle fill="#F5F5F5" cx="109.4" cy="68.7" r="2"/>
	<circle fill="#F5F5F5" cx="120" cy="61" r="2"/>
	<circle fill="#F5F5F5" cx="113.9" cy="63.7" r="3.5"/>
</g>
</svg>
